<svg xmlns="http://www.w3.org/2000/svg" height="24" viewBox="0 -960 960 960" width="24"><path d="M268.461-267.692V-840H840v572.308H268.461Zm40.001-40H800v-364.615H535.385V-800H308.462v492.308Zm0-492.308v492.308V-800Zm-40.77 680v-49.231h49.231V-120h-49.231Zm-98.461-590.769H120V-760h49.231v49.231ZM415.385-120v-49.231h49.23V-120h-49.23Zm147.692 0v-49.231h49.231V-120h-49.231ZM120-120v-49.231h49.231V-120H120Zm0-147.692v-49.231h49.231v49.231H120Zm0-147.693v-49.23h49.231v49.23H120Zm0-147.692v-49.231h49.231v49.231H120Zm590.769 393.846H760V-120h-49.231v-49.231Z"/></svg>